<svg width="53" height="62" viewBox="0 0 53 62" fill="none" xmlns="http://www.w3.org/2000/svg">
<circle cx="26.6796" cy="44.756" r="15.7162" stroke="#64646E" stroke-width="3"/>
<path d="M37.4769 21.5668C37.4769 26.0348 36.1443 30.02 34.0634 32.8523C31.9819 35.6854 29.2297 37.283 26.3283 37.283C23.4269 37.283 20.6746 35.6854 18.5932 32.8523C16.5123 30.02 15.1796 26.0348 15.1796 21.5668C15.1796 17.0987 16.5123 13.1135 18.5932 10.2812C20.6746 7.44807 23.4269 5.85054 26.3283 5.85054C29.2297 5.85054 31.9819 7.44807 34.0634 10.2812C36.1443 13.1135 37.4769 17.0987 37.4769 21.5668Z" stroke="#64646E" stroke-width="3"/>
<path d="M50.8282 8.91812C50.8282 9.483 50.4914 10.2526 49.3489 11.1651C48.2211 12.066 46.4969 12.9433 44.2329 13.7081C39.7202 15.2327 33.3899 16.2019 26.3282 16.2019C19.2666 16.2019 12.9363 15.2327 8.42357 13.7081C6.15962 12.9433 4.43541 12.066 3.3076 11.1651C2.16507 10.2526 1.82825 9.483 1.82825 8.91812C1.82825 8.35325 2.16507 7.58368 3.3076 6.6711C4.43541 5.77028 6.15962 4.89299 8.42357 4.12814C12.9363 2.60358 19.2666 1.63434 26.3282 1.63434C33.3899 1.63434 39.7202 2.60358 44.2329 4.12814C46.4969 4.89299 48.2211 5.77028 49.3489 6.6711C50.4914 7.58368 50.8282 8.35325 50.8282 8.91812Z" stroke="#64646E" stroke-width="3"/>
</svg>
